<svg id="Layer_1" data-name="Layer 1" xmlns="http://www.w3.org/2000/svg" viewBox="0 0 133.35 152.99"><defs><style>.cls-1{fill:#f9dc48;}</style></defs><title>clear-night</title><path class="cls-1" d="M120.17,25.07,51.67,83.83a10.7,10.7,0,1,0,13.69,16.44L78.28,89.18,45.11,140.65a10.92,10.92,0,0,0,2.68,14.89c5.16,3.59,11.09,1.7,14.89-2.68C77.8,135.45,93,118.08,109.48,102a408.57,408.57,0,0,1-15,59.37C90.6,173,106,180.76,113.33,171.11a382,382,0,0,1,58.8-61.31,10.7,10.7,0,1,0-13.69-16.44,404.64,404.64,0,0,0-31.15,28.95,433.82,433.82,0,0,0,7.46-47c.85-8.32-8.25-13.85-15.23-10.62l16.29-25.28C142.19,29.49,129.6,17,120.17,25.07Z" transform="translate(-42.57 -22.48)"/><path d="M91.68,33.84c31.51-1,56.16,20.28,58.69,50.66,2.22,26.72-17.28,52.23-43,57-30,5.57-55.34-10.3-64.84-41.5,19.45,4.7,37.14,2.71,49.7-14S102.51,51.71,91.68,33.84ZM62,114a41.66,41.66,0,0,0,47.17,15.39c17.85-5.88,30.13-22.5,30.19-40.88.06-17.86-11.54-34.42-27.79-39.67C109.81,91.79,97.79,107.78,62,114Z" transform="translate(-42.57 -22.48)"/></svg>