<svg id="Layer_1" data-name="Layer 1" xmlns="http://www.w3.org/2000/svg" viewBox="0 0 154.54 166.55"><defs><style>.cls-1{fill:#f9dc48;}</style></defs><title>clear-day</title><path class="cls-1" d="M176,115.54c-3-5.12-8.71-5.74-13.68-3.59a85.36,85.36,0,0,0-10.08,5.2L163.29,85c1.6-4.66-1.45-10-5.79-11.8-4.92-2-9.47-.05-12.49,4.09l-21.25,29.19,11.77-29.54c4-10-10-15.82-16.71-9.73q-6.53,5.94-12.64,12.31,9-22.79,19-45.19c5.32-11.89-9.47-20.32-17.27-10.09L78.53,62.71a10.19,10.19,0,0,0-17.82-1.44L36.66,94.81c-2.53,3.52-1.49,8.55,1.26,11.72L24,134.21C21.54,139,22.7,145,27.56,147.89c5.14,3,10.39.72,13.68-3.59L78.9,95q-8.26,22.13-15.64,44.59c-3.52,10.74,12.93,17.69,18.28,7.71a246.34,246.34,0,0,1,13.37-22.11L75.6,173.61c-1.82,4.56,1.61,10.12,5.79,11.8,4.92,2,9.47.05,12.49-4.09l28.8-39.55-4.23,12.32c-3.68,10.72,13,17.65,18.28,7.71a72.39,72.39,0,0,1,35.7-32.57C177.37,127.08,178.5,119.81,176,115.54Z" transform="translate(-22.74 -19.64)"/><path d="M143.72,93.4c0,21.18-16.49,37.78-37.47,37.68A37.53,37.53,0,1,1,143.72,93.4ZM106.47,66.89a26.68,26.68,0,0,0-.78,53.35C121,120.45,133,108.71,133,93.57A26.45,26.45,0,0,0,106.47,66.89Z" transform="translate(-22.74 -19.64)"/><path d="M58.06,98.43H38.7V88.86H58.06Z" transform="translate(-22.74 -19.64)"/><path d="M136.42,131.13l7.42-6.8L158,138.27l-8.26,6.51Z" transform="translate(-22.74 -19.64)"/><path d="M76.38,130.95,61.83,145.47l-5.92-7.4L69.21,124Z" transform="translate(-22.74 -19.64)"/><path d="M150.26,42.47l7.85,6.63L143,63.36l-6.56-7.5Z" transform="translate(-22.74 -19.64)"/><path d="M75.9,56.71l-7.1,7.1L55.26,49l6.85-6.12Z" transform="translate(-22.74 -19.64)"/><path d="M101.68,26.42h9.46V45.55h-9.46Z" transform="translate(-22.74 -19.64)"/><path d="M154.32,98.45V88.73h19v9.72Z" transform="translate(-22.74 -19.64)"/><path d="M101.7,141.32h9.41v19.42H101.7Z" transform="translate(-22.74 -19.64)"/></svg>