<svg id="Layer_1" data-name="Layer 1" xmlns="http://www.w3.org/2000/svg" viewBox="0 0 134.4 146.74"><defs><style>.cls-1{fill:#2e8cca;}</style></defs><title>cloudy</title><path class="cls-1" d="M166.78,77c-.1-9.79-13.66-13.77-18.63-5a399,399,0,0,0-19.29,38.58,339.53,339.53,0,0,1-.57-37.77c.38-9.51-14.44-14.18-18.63-5q-2.7,5.87-5.13,11.84c-1.78-9.78-16.18-10.88-19.46-.81l-7.58,23.27q-.22-32.69-.43-65.37c-.06-9.61-13.89-14-18.63-5a228.4,228.4,0,0,0-15,35.27c-5.19-.26-10.57,2.94-10.55,9.64q.06,19.34.12,38.69a10.16,10.16,0,0,0,10,10c5.89,0,9.41-4.61,10-10A199.3,199.3,0,0,1,57.4,89.9l.49,73.88c.08,11.5,16.18,13.28,19.64,2.66l8.12-24.95.12,7.83a10,10,0,0,0,8.67,9.82c4.41.52,10.26-2.18,11-7.16q1.84-13,4.89-25.74,1.59,13.89,4.24,27.66c2,10.25,16.49,8.74,19.29,0a373.67,373.67,0,0,1,13.38-35.51v.68c.14,12.86,20.14,12.89,20,0Z" transform="translate(-32.83 -26.75)"/><path d="M97.77,143.46c-9.74,0-19.49.13-29.23,0C49.87,143.16,35,128.6,34.65,110.39,34.3,93.08,48.52,78.22,66.53,76.65A11.52,11.52,0,0,0,73.43,73c20.31-22.91,54-16.71,64.71,11.94a11.77,11.77,0,0,0,4.43,5.21c11.74,7.71,17,20.12,13.51,32.53S141.19,143.36,127,143.45H97.77Zm32.8-47.93c-2.07-14-10.37-23.86-21.7-26.3-13.08-2.81-23.46,2.72-33,17.6-1.75-.18-3.49-.46-5.24-.53-14.44-.59-25.67,9.21-26.4,23-.68,12.81,10.31,24.44,24.31,24.7q29.89.56,59.81,0c13.08-.27,21.94-11.63,18.74-23.37C144.81,102.39,138.79,97.77,130.57,95.53Z" transform="translate(-32.83 -26.75)"/></svg>