<svg id="Layer_1" data-name="Layer 1" xmlns="http://www.w3.org/2000/svg" viewBox="0 0 1056.19 1347.48"><defs><style>.cls-1{font-size:24px;font-family:ComicSansMS, Comic Sans MS;}.cls-1,.cls-11,.cls-22,.cls-23,.cls-3{fill:#231f20;}.cls-2{fill:#f9dc48;}.cls-3{font-size:43px;}.cls-11,.cls-3{stroke:#231f20;stroke-miterlimit:10;font-family:BalloonURW-Lig, Balloon URW;}.cls-4{letter-spacing:-0.02em;}.cls-5{letter-spacing:-0.06em;}.cls-6{letter-spacing:-0.01em;}.cls-7{letter-spacing:-0.02em;}.cls-8{letter-spacing:-0.02em;}.cls-9{letter-spacing:-0.03em;}.cls-10{letter-spacing:0em;}.cls-11{font-size:47px;}.cls-12{letter-spacing:-0.02em;}.cls-13{letter-spacing:0em;}.cls-14{letter-spacing:-0.04em;}.cls-15{letter-spacing:0em;}.cls-16{letter-spacing:-0.01em;}.cls-17{letter-spacing:-0.06em;}.cls-18{letter-spacing:-0.03em;}.cls-19{fill:#2e8cca;}.cls-20{letter-spacing:-0.01em;}.cls-21{letter-spacing:-0.01em;}.cls-22{font-size:48.16px;font-family:ComicSansMS-Bold, Comic Sans MS;font-weight:700;}</style></defs><title>cloud_in_bottle</title><text class="cls-1"><tspan x="126" y="186.15">2-liter clear plastic pop bottle</tspan><tspan x="126" y="214.95">matches (children will need adult </tspan><tspan x="126" y="243.75">assistance to light matches)</tspan><tspan x="126" y="272.55">warm water</tspan></text><text class="cls-1"><tspan x="128.44" y="1126.37">Water vapor, water in its invisible gaseous state, can be made to condense into </tspan><tspan x="128.44" y="1155.17">the form of small cloud droplets. By adding particles such as the smoke</tspan><tspan x="128.44" y="1183.97">enhances the process of water condensation and by squeezing the bottle causes </tspan><tspan x="128.44" y="1212.77">the air pressure to drop. This creates a cloud!</tspan></text><text class="cls-1"><tspan x="126" y="413.35">1.Fill the clear plastic 2-liter bottle one-third full of warm water and place the </tspan><tspan x="126" y="442.15">cap on. As warm water evaporates, it adds water vapor to the air inside the </tspan><tspan x="126" y="470.95">bottle. This is the first ingredient to make a cloud.</tspan><tspan x="126" y="528.55">2.Squeeze and release the bottle and observe what happens. You’ll notice that </tspan><tspan x="126" y="557.35">nothing happens. Why? The squeeze represents the warming that occurs in the </tspan><tspan x="126" y="586.15">atmosphere. The release represents the cooling that occurs in the atmosphere. </tspan><tspan x="126" y="614.95">If the inside of the bottle becomes cover with condensation or water droplets, </tspan><tspan x="126" y="643.75">just shake the bottle to get rid of them.</tspan><tspan x="126" y="701.35">3.Take the cap off the bottle. Carefully light a match and hold the match near </tspan><tspan x="126" y="730.15">the opening of the bottle.</tspan><tspan x="126" y="787.75">4. Drop the match in the bottle and quickly put on the cap, trapping the smoke </tspan><tspan x="126" y="816.55">inside. Dust, smoke or other particles in the air is the second ingredient to </tspan><tspan x="126" y="845.35">make a cloud.</tspan><tspan x="126" y="902.95">5. Once again, slowly squeeze the bottle hard and release. What happens? A </tspan><tspan x="126" y="931.75">cloud appears when you release and disappears when you squeeze. The third </tspan><tspan x="126" y="960.55">ingredient in clouds is a drop in air pressure.</tspan></text><path class="cls-2" d="M190,129.52c-1.58-5.75-6.93-7.76-12.3-7a346,346,0,0,0-150.21,60c-4.4,3.12-6.48,8.73-3.59,13.68,2.54,4.35,9.25,6.73,13.68,3.59a333.19,333.19,0,0,1,145.43-58C188.41,141,191.34,134.25,190,129.52Z"/><text class="cls-3" transform="matrix(0.94, -0.33, 0.33, 0.94, 27.38, 174.77)"><tspan class="cls-4">M</tspan><tspan class="cls-5" x="24.94" y="0">A</tspan><tspan class="cls-6" x="41.62" y="0">T</tspan><tspan x="56.67" y="0">E</tspan><tspan class="cls-7" x="73.7" y="0">R</tspan><tspan class="cls-8" x="91.07" y="0">I</tspan><tspan x="99.37" y="0">A</tspan><tspan class="cls-9" x="118.55" y="0">L</tspan><tspan class="cls-10" x="131.49" y="0">S</tspan></text><path class="cls-2" d="M215.89,1027.74c-51.83,14.14-103,36.88-151.93,67.75Q43.2,1108.59,23,1123.63a11.93,11.93,0,0,0-4.2,12.32c1.12,4.26,5.28,7.13,8.64,4.63,46.61-34.66,95.82-62,146.2-80.63q21.5-7.95,43.23-13.85C225.55,1043.73,224.63,1025.36,215.89,1027.74Z"/><text class="cls-11" transform="translate(33.72 1107.18) rotate(-23.54)"><tspan class="cls-12">E</tspan><tspan class="cls-13" x="17.72" y="0">X</tspan><tspan class="cls-14" x="34.59" y="0">P</tspan><tspan class="cls-15" x="52.5" y="0">L</tspan><tspan x="68.15" y="0">A</tspan><tspan class="cls-16" x="89.11" y="0">N</tspan><tspan class="cls-17" x="110.64" y="0">A</tspan><tspan class="cls-18" x="128.87" y="0">T</tspan><tspan class="cls-13" x="144.24" y="0">ION</tspan></text><path class="cls-19" d="M136.05,332.23A250.47,250.47,0,0,0,28.74,395.35c-9.12,9.1,4.82,23.43,14,14.32a229.54,229.54,0,0,1,98.43-58.09C153.45,348,148.47,328.65,136.05,332.23Z"/><text class="cls-11" transform="translate(31.28 380.93) rotate(-23.54)"><tspan class="cls-20">S</tspan><tspan class="cls-21" x="17.53" y="0">T</tspan><tspan x="33.98" y="0">E</tspan><tspan class="cls-12" x="52.59" y="0">P</tspan><tspan x="71.53" y="0">S</tspan></text><text class="cls-22" transform="translate(258.9 58.12)">CLOUD IN A BOTTLE</text><path class="cls-23" d="M850.68,155.7c-12.82-12.3-30.76-16.46-47.83-11.9-13.94,3.73-26.63,12.93-33.57,25.47-5.64-20.19-18.14-38.44-38.05-47-22.66-9.7-50.5-4.5-63.74,17.52A45,45,0,0,0,661,162.72c-14.21-11.81-34.6-15.07-49.75-1.17-8.24,7.56-11.8,19.08-8.08,29.77,3.58,10.29,12.49,17.91,23.49,18.57,5.14.31,5.12-7.69,0-8-8-.49-14.36-7-16.37-14.58-2.3-8.63,2-17.13,9.11-22.11,15.8-11.1,35.43-1.84,44.76,13,2.29,3.64,9.09,1.3,7.31-3.08-4.85-12-2.15-25.51,5.87-35.5,8.52-10.61,21.76-15.09,35.1-14,30.2,2.52,48.7,30.73,51.8,58.72.45,4.06,7,5.91,7.86,1.06,5.15-30.85,45.82-46.23,70.14-26.6,12,9.66,18.55,25.26,18.6,40.48a49.17,49.17,0,0,1-21.2,40.5c-15,10.59-34.5,13.78-51.85,7.53-2.82-1-5.85,2.15-4.92,4.92,7.5,22.31-5.71,49.65-28.7,56.33-23.5,6.83-49.62-10.06-54.63-33.56-.84-3.95-6.71-3.67-7.71,0-8.29,30.4-21.21,71.82-59,74.27-15.19,1-28.45-7.62-33-22.23-4.24-13.51-1.58-28.57,6-40.38,1.08-1.69.48-4.6-1.43-5.47-14-6.36-21.14-25.09-13-38.75s28-16.27,40.28-7c4.12,3.1,8.11-3.85,4-6.91-15.77-11.86-41.08-7.18-51.22,9.92-9.46,15.94-3.05,38.24,12.38,47.8-11,20.58-9.84,50,10.54,64.3,24.95,17.46,57.5-.09,72.26-22.3,7.88-11.86,12.66-25.39,16.64-39a54.91,54.91,0,0,0,41.33,28.5c22.56,2.81,42.84-11.31,51.39-31.8A51.9,51.9,0,0,0,792.28,257c34.32,7.94,72.63-15.6,76.25-51.94C870.31,187.24,863.67,168.17,850.68,155.7Z"/><path class="cls-23" d="M1005.42,306.84c-6.63-9.87-17.4-13.39-28.53-14.89,14.91-13.14,19.62-37.15,8.8-54.64-12.42-20.08-39.41-24.71-59.78-15.3,1.42-11.59-2.78-23.67-12.29-31.18-12.73-10.05-31.23-8.84-43.43,1.33-4,3.3,1.73,8.93,5.66,5.66,9.21-7.67,23.79-8.15,33.17-.48,8.88,7.26,11.77,20.71,7.06,31.07-1.93,4.25,2.67,7.68,6.28,4.85,16.48-12.92,44.94-10.44,56.41,8.1,10.18,16.46,3.5,42.28-15,49.7-4.09,1.64-3.67,7.59,1.06,7.86,12.95.72,30.12,1.83,35.77,15.84,5.73,14.2-9.75,19.32-20.45,21.66-14.6,3.19-30.62,6.7-45.31,2.05-11.59-3.67-22.31-13.49-22.58-26.26-.06-2.82-3.43-5.26-6-3.45-9.63,6.73-14.42,17-18.89,27.52-4.17,9.8-8.59,21.7-18.88,26.61-12.27,5.86-27.07-1.09-35.35-10.57-10.38-11.88-13.68-28.47-16.92-43.43-.88-4.06-6.57-3.55-7.71,0-3.47,10.81-10.5,22.86-23.24,23.35-5.24.2-10.5-2.06-12.52-7.17-1.74-4.41-.82-9.08,2.93-12,4-3.17-1.65-8.8-5.66-5.66-12.61,9.89-4.34,29.67,9.86,32.39s24.74-6,31.27-17.27c3.08,12.33,7.27,24.47,15.44,34.38,8.77,10.65,23.25,17.84,37.2,15.68,13.34-2.06,21.57-12.65,27-24.18,4.38-9.36,7.6-20.58,14.7-28.41,2.4,8.61,8.34,15.83,16,20.87,12.15,8,27.12,8.72,41.16,6.89A223.88,223.88,0,0,0,985,343.51c5.61-1.32,11.37-3.1,16.09-6.53C1011,329.76,1012.09,316.76,1005.42,306.84Z"/><path class="cls-23" d="M953.89,139.12c-8.35-17.87-30.85-25.69-48.86-19.2C902.3,106,887.52,97,873.65,96.21c-18.82-1-34.44,12.88-47.06,25.64-6.94-8.45-19.07-12.41-29.53-8.33-12.14,4.73-18.59,18.25-15.79,30.74,1.13,5,8.84,2.9,7.71-2.13-1.94-8.64,2.9-18.41,11.46-21.36s18,1.65,22.1,9.41a4,4,0,0,0,6.28.81c11-11.28,24.21-25.39,40.95-26.76,12.67-1,28.46,7.46,27.66,21.7-.17,3.1,3.51,4.89,6,3.45,14.56-8.3,35.34-2.55,43,12.61s-.79,35.72-16.29,41.9c-4.72,1.88-2.66,9.62,2.13,7.71C952.2,183.68,963.17,159,953.89,139.12Z"/></svg>