<svg id="Layer_1" data-name="Layer 1" xmlns="http://www.w3.org/2000/svg" viewBox="0 0 1056.19 914.19"><defs><style>.cls-1{font-size:24px;font-family:ComicSansMS, Comic Sans MS;}.cls-1,.cls-11,.cls-22,.cls-23,.cls-3{fill:#231f20;}.cls-2{fill:#f9dc48;}.cls-3{font-size:43px;}.cls-11,.cls-3{stroke:#231f20;stroke-miterlimit:10;font-family:BalloonURW-Lig, Balloon URW;}.cls-4{letter-spacing:-0.02em;}.cls-5{letter-spacing:-0.06em;}.cls-6{letter-spacing:-0.01em;}.cls-7{letter-spacing:-0.02em;}.cls-8{letter-spacing:-0.02em;}.cls-9{letter-spacing:-0.03em;}.cls-10{letter-spacing:0em;}.cls-11{font-size:47px;}.cls-12{letter-spacing:-0.02em;}.cls-13{letter-spacing:0em;}.cls-14{letter-spacing:-0.04em;}.cls-15{letter-spacing:0em;}.cls-16{letter-spacing:-0.01em;}.cls-17{letter-spacing:-0.06em;}.cls-18{letter-spacing:-0.03em;}.cls-19{fill:#2e8cca;}.cls-20{letter-spacing:-0.01em;}.cls-21{letter-spacing:-0.01em;}.cls-22{font-size:48.16px;font-family:ComicSansMS-Bold, Comic Sans MS;font-weight:700;}</style></defs><title>rainbow</title><text class="cls-1" transform="translate(126 183.95)">glass of water<tspan x="0" y="28.8">sheet of white paper</tspan><tspan x="0" y="57.6">the sun</tspan></text><text class="cls-1"><tspan x="121.9" y="814.23">Why does this happen? Light is made up of a lot of colors. Specifically, the </tspan><tspan x="121.9" y="843.03">colors are red, orange, yellow, green, blue, indigo and violet. When light passes </tspan><tspan x="121.9" y="871.83">through the water, it is broken up into the colors seen in a rainbow.</tspan></text><text class="cls-1" transform="translate(117.8 366.71)">1.Fill the glass all the way to the top with water.<tspan x="0" y="57.6">2.Put the glass of water on a table so that it is half on the table and half off of </tspan><tspan x="0" y="86.4">the table. Be careful that the glass doesn’t fall.</tspan><tspan x="0" y="144">3.Make sure that the sun can shine through the glass of water.</tspan><tspan x="0" y="201.6">4. Place the white sheet of paper on the floor.</tspan><tspan x="0" y="259.2">5.Adjust the piece of white paper and the glass of water until a rainbow forms on </tspan><tspan x="0" y="288">the paper.</tspan></text><path class="cls-2" d="M190,129.52c-1.58-5.75-6.93-7.76-12.3-7a346,346,0,0,0-150.21,60c-4.4,3.12-6.48,8.73-3.59,13.68,2.54,4.35,9.25,6.73,13.68,3.59a333.19,333.19,0,0,1,145.43-58C188.41,141,191.34,134.25,190,129.52Z"/><text class="cls-3" transform="matrix(0.94, -0.33, 0.33, 0.94, 27.38, 174.77)"><tspan class="cls-4">M</tspan><tspan class="cls-5" x="24.94" y="0">A</tspan><tspan class="cls-6" x="41.62" y="0">T</tspan><tspan x="56.67" y="0">E</tspan><tspan class="cls-7" x="73.7" y="0">R</tspan><tspan class="cls-8" x="91.07" y="0">I</tspan><tspan x="99.37" y="0">A</tspan><tspan class="cls-9" x="118.55" y="0">L</tspan><tspan class="cls-10" x="131.49" y="0">S</tspan></text><path class="cls-2" d="M209.36,715.59c-51.83,14.14-103,36.88-151.93,67.75q-20.77,13.11-40.95,28.14a11.93,11.93,0,0,0-4.2,12.32c1.12,4.26,5.28,7.13,8.64,4.63,46.61-34.66,95.82-62,146.2-80.63q21.5-7.95,43.23-13.85C219,731.58,218.09,713.21,209.36,715.59Z"/><text class="cls-11" transform="translate(27.18 795.04) rotate(-23.54)"><tspan class="cls-12">E</tspan><tspan class="cls-13" x="17.72" y="0">X</tspan><tspan class="cls-14" x="34.59" y="0">P</tspan><tspan class="cls-15" x="52.5" y="0">L</tspan><tspan x="68.15" y="0">A</tspan><tspan class="cls-16" x="89.11" y="0">N</tspan><tspan class="cls-17" x="110.64" y="0">A</tspan><tspan class="cls-18" x="128.87" y="0">T</tspan><tspan class="cls-13" x="144.24" y="0">ION</tspan></text><path class="cls-19" d="M148.36,295.93A250.47,250.47,0,0,0,41,359.05c-9.12,9.1,4.82,23.43,14,14.32a229.54,229.54,0,0,1,98.43-58.09C165.76,311.73,160.77,292.36,148.36,295.93Z"/><text class="cls-11" transform="translate(43.59 344.64) rotate(-23.54)"><tspan class="cls-20">S</tspan><tspan class="cls-21" x="17.53" y="0">T</tspan><tspan x="33.98" y="0">E</tspan><tspan class="cls-12" x="52.59" y="0">P</tspan><tspan x="71.53" y="0">S</tspan></text><text class="cls-22" transform="translate(297.46 55.68)">MAKE A RAINBOW</text><path class="cls-23" d="M931.74,167.43c-7.2-26.29-25.33-46.38-50.67-56.4-46.37-18.32-101.07-6.9-141,21.18a157.14,157.14,0,0,0-52,61.14c-2,4.35,4.66,7.61,6.71,3.27,19.34-41,57.9-71.1,101.62-82.32,45.49-11.67,106.52-2.51,125.37,46.63,11.69,30.48,5.74,63.6.07,94.69-.86,4.72,6.47,6.1,7.33,1.36C934.55,227.51,939.82,196.93,931.74,167.43Z"/><path class="cls-23" d="M879.47,159.12a85.69,85.69,0,0,0-49.91-24.22c-19.55-2.43-38.58,2.3-55.31,12.53-19.64,12-34.92,29.91-49.47,47.44-3.07,3.7,2.57,8.58,5.64,4.88,23-27.67,50.24-58.33,89.26-58.09,35.67.22,67.63,25.45,74.17,60.76a78.26,78.26,0,0,1-10.51,56.12c-2.57,4.06,4.17,7.28,6.71,3.27C910.1,230.13,905.9,185.89,879.47,159.12Z"/><path class="cls-23" d="M854.13,172.22c-20-15.77-46.46-7.85-63.51,8.15-12.08,11.34-19.87,26.42-27.12,41.09-2.13,4.31,4.58,7.57,6.71,3.27,11.89-24,31.73-58.78,64-53.3,14.26,2.42,24.58,12.88,25.31,27.52.82,16.51-7.6,31.88-8.59,48.24-.29,4.73,7,6.15,7.33,1.36C859.81,223.64,879.15,192,854.13,172.22Z"/><path class="cls-23" d="M742.28,218.89c-9.85-3.7-23.62-8.11-34.22-4.78,5-8.27,12.35-15.61,14.32-25.4,2.69-13.39-5.57-25.22-19.81-24.14-12.92,1-24.61,10.1-32.14,20.14a56.42,56.42,0,0,0-11.23,37.49c.34,4.85,8,5.38,7.65.48-1.48-20.92,12.38-47.09,35-50.37,6-.86,11.87,1.39,13.25,7.77,1.28,5.88-1.27,12.4-4.34,17.31-5.84,9.35-13.53,17.15-15,28.55-.48,3.69,5.26,5.71,7,2.33,4.31-8.21,14-8.84,22.14-6.94a101.58,101.58,0,0,1,21.89,7.75c6.34,3.18,12.44,7.95,14,15.25s-2,14.79-6.74,20.19c-20.56,23.21-59.54,9.13-69.85-17-1.18-3-5-2.27-6.61-.34-11.9,14-27.14,29.44-47.14,27.72-8-.68-15.45-4.61-19-12-2.74-5.63-3.14-12.61.16-17.91a13.92,13.92,0,0,0,2.69-3.35c2.08-3.59-2.55-8.16-5.78-4.93a25.27,25.27,0,0,0-2.25,2.58,8,8,0,0,1-8.72.26c-5-2.89-5.56-10-4.44-15.12,2-9,8.89-16.28,17.08-20.08,18.19-8.44,38.91,4.2,42,23.48.78,4.87,8.27,3.29,7.5-1.57a39.25,39.25,0,0,0-23.45-29.6c-12.43-5.28-26.6-2.52-37.14,5.56-10.32,7.9-17.72,22.85-12.39,35.67A17.73,17.73,0,0,0,602,248.34c-3,13.84,7.05,29.39,21.57,33.11,22.92,5.86,41.72-9.27,56.19-25.29,12.19,22.42,42.06,34.3,65.93,23.82,12.32-5.41,23.23-18.36,23.07-32.32C768.55,232.24,755.22,223.75,742.28,218.89Z"/><path class="cls-23" d="M961.9,316.71a26.36,26.36,0,0,0-15.43-14,27.47,27.47,0,0,0,8.19-18.52,28.44,28.44,0,0,0-15.6-26.16c-24.47-12.34-48.26,8.83-71.09,14.47a3.92,3.92,0,0,0-2.46,1.76A24.15,24.15,0,0,0,864,253.16c-5.61-9.46-17.48-12.06-27.28-7.89s-15.77,14.28-13,24.83a24.11,24.11,0,0,0,13.32,15.72c-10.76,10.35-9.84,29.65,1.07,40.54C852.84,341,873.88,339.68,892,333a28.61,28.61,0,0,0,4.78,20.33c6.33,9.5,17.33,13.8,28.5,13C947.46,364.9,972.71,340.08,961.9,316.71Zm-22.58,37.52c-9.26,5.28-22.18,7-31.18.23-7.59-5.71-11.87-17.28-6.74-25.94,1.75-3-.75-7.61-4.51-5.84-15.47,7.25-34.85,12.17-49.9,1.19-6.36-4.64-10.79-11.81-10.1-19.87.63-7.33,4.73-13.92,11.8-16.42,4.3-1.52,2.18-7.58-1.94-7.34-7,.4-13.53-5-15.48-11.62-2.06-7,1.88-13.49,8.38-16.27,6.19-2.65,13.93-1.62,17.7,4.45,4.18,6.74,2.58,16.23-3.8,20.92-4,2.92.71,9,4.68,6.06a21.7,21.7,0,0,0,6.81-8.41c-.71,2.5.76,5.53,3.91,4.75,19.34-4.77,37.29-20.14,58-17.69,9.53,1.13,17.71,7.13,19.64,16.88,2,10.26-4.24,19.73-13.81,23.18-4.71,1.7-1.73,8.48,2.9,7.09,10.16-3.05,19.92,6.64,20.72,16.3C957.42,337.59,949.08,348.66,939.32,354.23Z"/></svg>