<svg id="Layer_1" data-name="Layer 1" xmlns="http://www.w3.org/2000/svg" viewBox="0 0 131.76 162.14"><defs><style>.cls-1{fill:#2e8cca;}.cls-2{fill:#231f20;}</style></defs><title>rain</title><path class="cls-1" d="M155.95,129.41q-12.93-5.24-25.67-10.94,6.48,2,12.93,4.19c9.25,3.09,17.3-10.23,9.73-16.71L133.6,89.38l19.31,4.8C164,96.95,170.15,82,160.61,75.9A455.67,455.67,0,0,1,95.86,25.47c-9.4-8.78-23.57,5.33-14.14,14.14q12.69,11.86,26.22,22.78L97.71,59.85C88.61,57.58,80,69.75,88,76.56l15.41,13.2Q76.65,82.52,49.45,77.08c-10.75-2.14-17.93,12.3-7.71,18.28q14.15,8.27,28.61,15.94l-22.48-4.76c-4.85-1-9.88,1-11.8,5.79-1.72,4.29-.47,10.3,4.09,12.49L72.4,140.26l-21-3.25c-4.92-.76-9.8.83-11.8,5.79a10,10,0,0,0,4.09,12.49q8.47,5,17.21,9.52c-12.14.72-11.92,19.95.72,20l46.85.07c10.49,0,12.56-12.66,5.58-18l20.72,3.2c4.92.76,9.8-.83,11.8-5.79,1.72-4.29.47-10.3-4.09-12.49l-17.81-8.54,26,5.5C163.48,151.41,167.69,134.16,155.95,129.41Z" transform="translate(-33.57 -22.7)"/><path d="M134,129.07c-1-5.74-.72-9.34,4.57-12.94,12.68-8.62,9.59-27-4.87-33.75a9.21,9.21,0,0,1-4.67-5.11C125.65,64.39,116.52,55,105.44,53.55,93,52,82.66,58,75.79,70.92a5.9,5.9,0,0,1-.85,1c-13.05-3-26.54,2.3-31.1,18.17-2.08,7.22-.89,14.19,3.91,19.55,4.22,4.72,5.26,9.46,4.18,15.2-9.3-2.62-17.7-14.59-18.31-26.13-1-19.94,12.52-35.34,32.46-37.18A10,10,0,0,0,72,58.32c21-23.94,54-17.65,65.17,12.37.82,2.2,3.08,4.13,5.11,5.56,10,7.09,15.09,16.7,13.33,28.82S146.65,125.13,134,129.07Z" transform="translate(-33.57 -22.7)"/><path class="cls-2" d="M62.34,124.79c.42-4.34,2.87-8.25,6.44-11.56a1.08,1.08,0,0,1,1-.09c3.73,3.51,6.59,7.55,6.49,12.91a6.92,6.92,0,0,1-7.07,6.83C65.42,132.78,62.35,129.46,62.34,124.79Z" transform="translate(-33.57 -22.7)"/><path class="cls-2" d="M70.44,153.6c.42-4.34,2.87-8.25,6.44-11.56a1.08,1.08,0,0,1,1-.09c3.73,3.51,6.59,7.55,6.49,12.91a6.92,6.92,0,0,1-7.07,6.83C73.52,161.58,70.45,158.26,70.44,153.6Z" transform="translate(-33.57 -22.7)"/><path class="cls-2" d="M90.73,135.6c.42-4.34,2.87-8.25,6.44-11.56a1.08,1.08,0,0,1,1-.09c3.73,3.51,6.59,7.55,6.49,12.91a6.92,6.92,0,0,1-7.07,6.83C93.8,143.58,90.73,140.26,90.73,135.6Z" transform="translate(-33.57 -22.7)"/><path class="cls-2" d="M99.25,168.9c.42-4.34,2.87-8.25,6.44-11.56a1.08,1.08,0,0,1,1-.09c3.73,3.51,6.59,7.55,6.49,12.91a6.92,6.92,0,0,1-7.07,6.83C102.32,176.88,99.26,173.56,99.25,168.9Z" transform="translate(-33.57 -22.7)"/><path class="cls-2" d="M115,138.66c.42-4.34,2.87-8.25,6.44-11.56a1.08,1.08,0,0,1,1-.09c3.73,3.51,6.59,7.55,6.49,12.91a6.92,6.92,0,0,1-7.07,6.83C118.08,146.64,115,143.32,115,138.66Z" transform="translate(-33.57 -22.7)"/></svg>