<svg id="Layer_1" data-name="Layer 1" xmlns="http://www.w3.org/2000/svg" viewBox="0 0 149.44 130.19"><defs><style>.cls-1{fill:#2e8cca;}</style></defs><title>sleet</title><path class="cls-1" d="M169.52,64.45a288.69,288.69,0,0,0-53.16-28c-7.74-3.13-16.47,8-11.29,14.69l9.53,12.4L93.11,51.49c-8-4.52-20,5.24-13.68,13.68A214.2,214.2,0,0,0,94.94,83.56a255,255,0,0,0-28.52-2.62C58.19,80.65,52.64,92.39,59.35,98q5.33,4.47,10.92,8.53a237.52,237.52,0,0,0-35.83,1.93c-9.77,1.28-13.7,12.62-5,18.63a179.88,179.88,0,0,0,19.1,11.58,10.68,10.68,0,0,0-.54,6.64c1.58,5.75,6.93,7.75,12.3,7,5.65-.8,11.33-1.29,17-1.53a184.68,184.68,0,0,0,65.44,8.87c11.24-.52,13.6-16.2,2.66-19.64q-5.75-1.81-11.56-3.24c10-.14,13.36-16.32,2.17-19.73a176,176,0,0,1-27.61-10.64q10.54,2.38,20.9,5.73c4.69,1.52,10-1.38,11.8-5.79a10.18,10.18,0,0,0,.75-4.54l5.3,3a10.23,10.23,0,0,0,12.12-1.56c2.86-2.86,4.22-8.66,1.56-12.12L148,74.38q5.82,3.53,11.47,7.34C170.14,88.92,180.16,71.6,169.52,64.45ZM81.18,130.92q-5.78-2-11.42-4.36a225.89,225.89,0,0,1,56.7,8.54A203,203,0,0,0,81.18,130.92Z" transform="translate(-24.61 -35.93)"/><path d="M79,75.12C65,72.67,54.23,77.38,48.52,88.39c-5.87,11.32-3.1,21.93,7.88,32.8,3.92,3.88,6.87,8.73,10.64,13.62-24.13-1.07-38.81-29.16-27.43-50.91C45.86,72,55.83,65.43,69.4,64.17a11.28,11.28,0,0,0,6.83-3.63c10.2-12,23.09-17.18,38.4-14.33C129.47,49,139,58.55,144.4,72.58a15.45,15.45,0,0,0,5.4,6.71c19,13.05,19.7,37.36.72,51.71l-5.59-7.64c14.4-11.8,12.17-31.29-6.09-38A5.19,5.19,0,0,1,136.14,82C133.46,68.17,126,58.33,111.81,56c-15.22-2.44-25.64,5.28-32.3,18.64C79.41,74.87,79.16,75,79,75.12Z" transform="translate(-24.61 -35.93)"/><path d="M137.9,165.24c-8.63,2.45-13.54-.36-17.75-7.07-6.22-9.91-13.56-19.12-20.38-28.65-1.3-1.81-2.42-3.76-3.89-6.05,7.4-1.61,12.36-.56,16.55,5.92C120.28,141.53,129.13,153,137.9,165.24Z" transform="translate(-24.61 -35.93)"/><path d="M64.43,114.68c8.07-2.21,13.06.54,17.33,7.18,6.56,10.21,14.16,19.77,21.91,30.43-6.76.6-12.18,1.74-16.55-5.21-6.23-9.9-13.65-19-20.52-28.53A36.94,36.94,0,0,1,64.43,114.68Z" transform="translate(-24.61 -35.93)"/><path d="M114.2,115c8.56-2.18,13.56.26,17.81,7,6.44,10.22,14,19.71,21.56,30.1-7.44,1.28-12.63,1.12-16.9-5.73C130,135.68,122,125.81,114.2,115Z" transform="translate(-24.61 -35.93)"/></svg>