<svg id="Layer_1" data-name="Layer 1" xmlns="http://www.w3.org/2000/svg" viewBox="0 0 156.08 166.03"><defs><style>.cls-1{fill:#2e8cca;}</style></defs><title>snow</title><path class="cls-1" d="M178.14,143.77c-5.19-7.08-8.55-15-9.11-23.84-.67-10.51-12.69-12.81-18.63-5l-.74,1a311,311,0,0,1,10-50.74c3-10.63-13.25-18.12-18.28-7.71q-2.56,5.3-5,10.66,3.32-16.39,7.15-32.67c2.66-11.31-11.89-17-18.28-7.71q-8.39,12.19-16.49,24.58l9.55-24.69c1.57-4.07-1.05-9.22-4.6-11.29-4-2.34-8.76-1.39-12.12,1.56q-11.43,10-22.18,20.78a10,10,0,0,0-14.81-10L32.38,45.39C21,51.34,31.06,68.6,42.47,62.66l4.15-2.16L24.8,103.39c-5.9,11.6,9.87,20.54,17.27,10.09a462.53,462.53,0,0,1,41-50L44.57,163c-4.09,10.57,13.12,17.7,18.28,7.71q23.39-45.3,50.48-88.51-8.13,44.24-12.65,89.06c-1.15,11.31,17,13.43,19.64,2.66q3.39-13.62,7.44-27c0,.27,0,.54,0,.81a10.18,10.18,0,0,0,7.34,9.64c4.63,1.27,8.56-1,11.29-4.6l7.93-10.35a59.29,59.29,0,0,0,6.56,11.46c3.19,4.35,8.68,6.51,13.68,3.59C178.84,154.94,181.35,148.15,178.14,143.77Z" transform="translate(-23.51 -14.96)"/><path d="M142.27,76V85.8l6.53-5,5.53,5-12.92,15,2.73,2.61,15.12-13.38,5.06,5.86L159,102l10,1,.57,7.66-10.54.76,5.35,6.63-5.64,5.39-14.23-13.35-2.06,1.82c.27,7.55,9,9.68,11.9,16.38l-5.95,4.53L142.81,128l-.87,10.38H134l-.6-10.51-7.12,5.65-4.69-6,13-14.45-2.68-2.79-14.79,13-5.7-5.07,5.67-6.71-10.64-.67V103.1l10.09-.88L111.49,96l5.27-5.6,15.13,13.15,2.62-2.61L121.56,86l5.22-5.64,6.59,5.88L133.94,76Z" transform="translate(-23.51 -14.96)"/><path d="M86,109.53,73,124.1l1.9,2.05c7.1-.8,9.6-8.47,15.59-12l5.31,5.07-5,6.6,9.93.49v8.25H90.58l5.71,7.7-5.95,4.32L75.69,133.84,73,136.58l13,14.6L80.71,157l-6.48-5.77-.68,10.57H65.86l-.76-10.74-7,6.13-4.41-6.85L66.5,136.86l-1.77-2c-7.62.28-9.82,8.9-16.2,11.83l-5.38-5.12,5.42-6.41-10.64-.81v-7.92l10.4-.6-5-6.29,5.19-5.68L63.62,127l2.61-2.6L53.28,109.53l5.19-5.65,7,6V99.21h8.36v9.4l1.69,1,3.27-7.1Z" transform="translate(-23.51 -14.96)"/><path d="M107.11,80.5,100.8,86.4l-6.55-6-.8,11H85.85l-.47-10.29L78.72,86.2l-5.28-4.9C76,74.73,85.36,72.79,85.28,64.83L83.39,63.2l-14.71,14L63.81,70.8l5.49-6.59H58.51l-.46-8h11l-5.36-7.25L70,42.07c3.54,4.2,6.65,8.25,10.2,11.88,1,1,3.24.68,4.91,1-.36-1.52-.25-3.46-1.17-4.49-3.27-3.66-6.9-7-10.81-10.91l5.63-6,6.48,5.73.48-10.44H93.8V39.46l7-5.77,6.87,6.54c-2.87,2.12-5.66,3.53-7.52,5.73-2.3,2.72-3.83,6.09-5.7,9.19,3.11-1.71,6.53-3,9.23-5.24,2.41-2,4-4.93,6.12-7.65l6.52,6.82-5.69,6.34,10.51.84v7.34L111,64.25l5,6.86-6.27,6.68c-3.53-4.14-6.7-8.2-10.3-11.84-1-1-3.3-.82-5-1.18.46,1.69.43,3.85,1.48,5C99.24,73.38,103,76.61,107.11,80.5Z" transform="translate(-23.51 -14.96)"/></svg>