<svg id="Layer_1" data-name="Layer 1" xmlns="http://www.w3.org/2000/svg" viewBox="0 0 1056.19 1347.48"><defs><style>.cls-1{font-size:24px;font-family:ComicSansMS, Comic Sans MS;}.cls-1,.cls-12,.cls-23,.cls-24,.cls-4{fill:#231f20;}.cls-2,.cls-23{font-family:ComicSansMS-Bold, Comic Sans MS;font-weight:700;}.cls-3{fill:#f9dc48;}.cls-4{font-size:43px;}.cls-12,.cls-4{stroke:#231f20;stroke-miterlimit:10;font-family:BalloonURW-Lig, Balloon URW;}.cls-5{letter-spacing:-0.02em;}.cls-6{letter-spacing:-0.06em;}.cls-7{letter-spacing:-0.01em;}.cls-8{letter-spacing:-0.02em;}.cls-9{letter-spacing:-0.02em;}.cls-10{letter-spacing:-0.03em;}.cls-11{letter-spacing:0em;}.cls-12{font-size:47px;}.cls-13{letter-spacing:-0.02em;}.cls-14{letter-spacing:0em;}.cls-15{letter-spacing:-0.04em;}.cls-16{letter-spacing:0em;}.cls-17{letter-spacing:-0.01em;}.cls-18{letter-spacing:-0.06em;}.cls-19{letter-spacing:-0.03em;}.cls-20{fill:#2e8cca;}.cls-21{letter-spacing:-0.01em;}.cls-22{letter-spacing:-0.01em;}.cls-23{font-size:48.16px;}</style></defs><title>Untitled-3</title><text class="cls-1"><tspan x="126" y="186.15">6 cups of flour</tspan><tspan x="126" y="214.95">2 cups of salt</tspan><tspan x="126" y="243.75">4 tablespoons cooking oil</tspan><tspan x="126" y="272.55">2 tablespoons of baking soda</tspan><tspan x="126" y="301.35">dishwashing detergent</tspan><tspan x="126" y="330.15">food color</tspan><tspan x="126" y="358.95">vinegar</tspan><tspan x="126" y="387.75">warm water</tspan><tspan x="126" y="416.55">baking dish or pan</tspan></text><text class="cls-1"><tspan x="126" y="1216.51">Why does this happen? The red lava is the result of a chemical reaction be</tspan><tspan x="964.2" y="1216.51">-</tspan><tspan x="126" y="1245.31">tween the baking soda and vinegar. In this reaction, the carbon dioxide gas is </tspan><tspan x="126" y="1274.11">produced, pressure builds up inside the plastic bottle until the gas bubbles out </tspan><tspan x="126" y="1302.91">of the volcano. This is a good representation of what happens in real volcanoes.</tspan></text><text class="cls-1"><tspan x="126" y="547.34">1.Make the cone of the baking soda volcano. Mix 6 cups flour, 2 cups salt, </tspan><tspan x="126" y="576.14">4 tablespoons cooking oil and 2 cups warm water. The mixture should be smooth </tspan><tspan x="126" y="604.94">and firm. Add more warm water if needed.</tspan><tspan x="126" y="662.54">2.Stand the soda bottle in the baking pan and mold the dough around it into a </tspan><tspan x="126" y="691.34">volcano shape.</tspan><tspan x="126" y="748.94">*Don’t cover the opening or drop dough in it.</tspan><tspan x="126" y="806.54">3.Fill the bottle most of the way full with warm water and a bit of red food color.</tspan><tspan x="126" y="864.14">4.Add 6 drops of detergent to the bottle contents.</tspan><tspan x="126" y="921.74">5.Add 2 tablespoons of baking soda to the contents.</tspan><tspan x="126" y="979.34">6.Slowly pour vinegar into the bottle.</tspan><tspan class="cls-2"><tspan x="126" y="1036.94">Watch the eruption!</tspan></tspan></text><path class="cls-3" d="M190,129.52c-1.58-5.75-6.93-7.76-12.3-7a346,346,0,0,0-150.21,60c-4.4,3.12-6.48,8.73-3.59,13.68,2.54,4.35,9.25,6.73,13.68,3.59a333.19,333.19,0,0,1,145.43-58C188.41,141,191.34,134.25,190,129.52Z"/><text class="cls-4" transform="matrix(0.94, -0.33, 0.33, 0.94, 27.38, 174.77)"><tspan class="cls-5">M</tspan><tspan class="cls-6" x="24.94" y="0">A</tspan><tspan class="cls-7" x="41.62" y="0">T</tspan><tspan x="56.67" y="0">E</tspan><tspan class="cls-8" x="73.7" y="0">R</tspan><tspan class="cls-9" x="91.07" y="0">I</tspan><tspan x="99.37" y="0">A</tspan><tspan class="cls-10" x="118.55" y="0">L</tspan><tspan class="cls-11" x="131.49" y="0">S</tspan></text><path class="cls-3" d="M213.46,1117.87c-51.83,14.14-103,36.88-151.93,67.75q-20.77,13.11-40.95,28.14a11.93,11.93,0,0,0-4.2,12.32c1.12,4.26,5.28,7.13,8.64,4.63,46.61-34.66,95.82-62,146.2-80.63q21.5-7.95,43.23-13.85C223.12,1133.87,222.19,1115.49,213.46,1117.87Z"/><text class="cls-12" transform="translate(31.28 1197.32) rotate(-23.54)"><tspan class="cls-13">E</tspan><tspan class="cls-14" x="17.72" y="0">X</tspan><tspan class="cls-15" x="34.59" y="0">P</tspan><tspan class="cls-16" x="52.5" y="0">L</tspan><tspan x="68.15" y="0">A</tspan><tspan class="cls-17" x="89.11" y="0">N</tspan><tspan class="cls-18" x="110.64" y="0">A</tspan><tspan class="cls-19" x="128.87" y="0">T</tspan><tspan class="cls-14" x="144.24" y="0">ION</tspan></text><path class="cls-20" d="M136.05,466.22A250.47,250.47,0,0,0,28.74,529.34c-9.12,9.1,4.82,23.43,14,14.32a229.54,229.54,0,0,1,98.43-58.09C153.45,482,148.47,462.64,136.05,466.22Z"/><text class="cls-12" transform="translate(31.28 514.92) rotate(-23.54)"><tspan class="cls-21">S</tspan><tspan class="cls-22" x="17.53" y="0">T</tspan><tspan x="33.98" y="0">E</tspan><tspan class="cls-13" x="52.59" y="0">P</tspan><tspan x="71.53" y="0">S</tspan></text><text class="cls-23" transform="translate(229.67 55.68)">BAKING SODA VOLCANO</text><path class="cls-24" d="M900.83,391.71C891,376.77,881,362.08,872.18,346.47a497.81,497.81,0,0,1-46.34-112.75c-1.36-5-9.08-2.85-7.71,2.13a505.19,505.19,0,0,0,63.22,141.21c6.87,10.58,14.58,20.69,20.51,31.86,5.59,10.54,10.19,23.31,5.7,35.09-7.37,19.35-32,21.2-49.46,18.14-23.87-4.17-45.79-18.38-70.71-16.58-12.47.9-22.19,6.79-33.16,12.06-10,4.82-20.4,5.89-30.51.61A33.63,33.63,0,0,1,706,435c-1.8-8.52-14.87-7.58-21.58-6.34-9.29,1.73-18,6.35-27.5,7.16-9.77.84-17.13-4.92-18.22-14.74-1.3-11.71,3.69-23.34,8.24-33.82l18.88-43.45,39.34-90.53c2-4.67-4.86-8.75-6.91-4l-52.71,121.3c-6.51,15-15.14,30.66-15,47.45.12,13.63,8.48,25.2,22.8,25.89,8,.39,15.76-2.55,23.23-4.88,6.9-2.15,14.73-4.66,21.76-2a41,41,0,0,0,21.37,28.17c13.41,7,26.91,5.25,40.06-1.34,7.71-3.86,15-8.28,23.62-9.76,9.28-1.59,18.84,0,27.85,2.3,15.93,4.15,31,11.52,47.38,13.93,24.76,3.65,56.1-3.8,58.64-33.49C918.63,420.49,909.45,404.78,900.83,391.71Z"/><path class="cls-24" d="M851.43,213.26c-10.37-9.92-24.43-14.1-38.33-9.86-7.69,2.34-14.62,6.56-21.62,10.4a113.1,113.1,0,0,1-24.38,10.06,111.33,111.33,0,0,1-58.21.23,3.66,3.66,0,0,0-3.61.86c-18.49-4.64-33.42,13-38.73,29.18-7.6,23.16-9.6,49.21-9.83,73.44,0,4,5.45,5.4,7.45,2L686,292.79c3.31-5.57,6.55-11.2,9.94-16.73,2.43-4,6.61-10.79,11.94-11,12.16-.56,2.6,19.31,0,23.58-6.14,9.92-13.7,18.94-18.25,29.78-6.34,15.09-4.45,38.24,13.23,44.73,8.94,3.29,18.8.3,26-5.53,8.29-6.75,12.09-16.88,13.15-27.27,2.36-23.33-12.51-51,1.92-72.31,5.53-8.16,15.67-12.29,24.83-7.44,9.86,5.22,6.52,16,2.4,23.91-4.33,8.34-9.76,17-8.71,26.77a25.46,25.46,0,0,0,16.72,21c8.84,3,19.21.14,25.65-6.52,7.73-8,8-19.5,5.6-29.74-2.92-12.48-13.59-28.69-6.32-41.33,2.83-4.91,9.1-9.7,14.85-6.62,4.39,2.35,5.48,7.75,5.93,12.29,1.07,10.84-.51,21.4,3.64,31.8a46.87,46.87,0,0,0,22,24.26,4.07,4.07,0,0,0,5.88-2.39C867.43,274.88,877.16,237.86,851.43,213.26Zm-1,83.81a38.79,38.79,0,0,1-16-22.54c-2.42-9.43-.42-19.4-2.17-29-1.52-8.29-7.15-16-16.21-16.48-9.69-.51-18.18,7.58-21,16.36-3.8,11.83,1.72,24.18,5.47,35.23s6.64,26.54-6.11,32.89a16.74,16.74,0,0,1-24.11-14.23c-.45-10,7.58-18.94,11.05-27.87,3.23-8.31,2.9-18-3.94-24.47-6.29-5.92-16-7.82-24.19-5.56-22.47,6.18-24.8,34.14-22.28,53.09,1.74,13,5.11,26.5,2.47,39.67-2.19,10.93-10.43,22.43-22.73,22.32-10.55-.09-15.9-10.23-16.41-19.61-.62-11.42,5.07-21.2,11.23-30.38,6.43-9.58,14.92-19.37,16.19-31.27,1-9.57-4.93-20.29-16-17.94-11.89,2.52-18,17.13-23.51,26.42l-16.9,28.43A270.13,270.13,0,0,1,672.1,264c3.69-15.3,15.07-38.09,34.72-30.15a3.14,3.14,0,0,0,4-1.07,120.25,120.25,0,0,0,84.7-12.08c13.14-7.22,27.24-15.59,42.09-7.73,11.72,6.2,19.51,18.79,21.69,31.67C862.31,262.43,856.64,280.42,850.43,297.06Z"/><path class="cls-24" d="M730,208.64a25,25,0,0,0-9-11.09c-2-12.9-13.24-22.06-25.93-24.32-16.9-3-32.91,5.93-46.79,14.46-6.64,4.08-13.6,8.78-16.13,16.57-2.08,6.41-.48,14,5.39,17.79,13.19,8.6,29.18-5.36,39.68-12.11,7.75-5,16.31-9.84,25.8-9.74,7.53.07,16.15,3.12,19.27,10.57C724.28,215.44,732,213.39,730,208.64Zm-60.95-2.89c-5.54,3.71-11,8.07-17.54,10-7.31,2.12-15.18-1.33-11.26-10.2,3-6.72,11.19-10.47,17.21-14,6.82-4,13.9-7.74,21.62-9.67,11.21-2.8,27.43.28,32.58,11.52a36.13,36.13,0,0,0-6.72-1.08C691.61,191.39,679.77,198.6,669.09,205.75Z"/><path class="cls-24" d="M751.33,156c-7.54-10.09-20.73-20.79-34.08-20.15-6.23.3-12.53,4.12-14.31,10.38s2,11.7,6.69,15.45c14.1,11.37,29.83,21.14,44.64,31.57l.17.11c0,.19,0,.37,0,.56-.43,5.13,7.57,5.1,8,0A55.92,55.92,0,0,0,751.33,156Zm-40.17-4.22c-1.38-3,.09-5.75,2.95-7.13,3.32-1.6,7.28-.68,10.57.5,16.19,5.83,27.08,21.55,29.41,38.23l-29.34-20.67C720.7,159.88,713.36,156.5,711.16,151.8Z"/><path class="cls-24" d="M894.55,137c-5.45-5.12-13.84-5.5-20.87-5A105.71,105.71,0,0,0,788,188.52a3.94,3.94,0,0,0-.4,2.59c-5.22,4.37-8,10.23-5.27,18.36,1.63,4.85,9.36,2.77,7.71-2.13-3.87-11.51,12.11-15.59,19.95-17.95l32.18-9.67c11-3.32,22.09-6.61,33.12-10,7.84-2.38,16.41-5.25,21-12.61C900.17,150.8,900.24,142.38,894.55,137Zm-6.42,17.63c-3,3.43-7.73,5.08-12,6.45-19.18,6.2-38.65,11.63-58,17.44-4.95,1.49-12,3.23-18.62,5.84,15.3-23.6,40.83-40.23,68.92-43.87,6.06-.79,16-2.33,20.81,2.6C892.58,146.47,890.87,151.57,888.13,154.66Z"/></svg>