<svg id="Layer_1" data-name="Layer 1" xmlns="http://www.w3.org/2000/svg" viewBox="0 0 130.36 119.92"><defs><style>.cls-1{fill:#2e8cca;}</style></defs><title>fog</title><path class="cls-1" d="M162.8,92l-.63-20.71c-.28-9.29-14.06-14.42-18.63-5q-5.21,10.66-9.79,21.6l-.05-4.36A10,10,0,0,0,125,73.61c-5.33-.63-9,2.43-11,7.16l-9.25,22.28-.88-20.95c-.47-11.27-16.21-13.57-19.64-2.66L80.63,91.07,79,52.08C78.51,41,62.45,38.26,59.34,49.42L49.91,83.24c-5.91-3.33-15.37-.58-15.37,8.29l0,48.1c0,11.27,16.6,13.59,19.64,2.66l7.44-26.71,1.39,32.86c.48,11.27,16.21,13.57,19.64,2.66l3.63-11.55.37,8.9a10,10,0,0,0,8.67,9.82c5.33.63,9-2.43,11-7.16L114.27,132l.18,15c.13,11.1,16.84,13.81,19.64,2.66a385.69,385.69,0,0,1,11.5-37.54,9.58,9.58,0,0,0,6.31,3.49c4.46.53,10.2-2.19,11-7.16l1.31-8.46A12.18,12.18,0,0,0,162.8,92Z" transform="translate(-33.99 -42.29)"/><path d="M123.24,121.09c4.13-2.88,8.1-6,12.42-8.57,5.92-3.49,9.64-8.45,9.65-15.19,0-7.59-4.35-12.87-11-16.42-1.63-.87-3.8-2.27-4.15-3.79-2.64-11.43-8.87-19.67-20.75-21.45-12.57-1.88-21,4.83-26.82,15.94-10.5-2-19.35.78-25.06,10.36-5,8.39-3.69,16.6,1.92,24.33C49.72,109,48.13,108.08,46,98.9c-4.06-17.24,9.11-35.25,26.76-37.08A12.65,12.65,0,0,0,80.15,58c17.41-19.44,47.12-14.32,57,9.89a15.48,15.48,0,0,0,4.66,6.5c11.05,8.09,15.34,19.42,11.39,31.23s-14.4,18.15-28.69,17.51Z" transform="translate(-33.99 -42.29)"/><path d="M91.94,105.66l-6.61,1.62c-5.53-11,5.28-25.34,19-25.17a20.82,20.82,0,0,1,20.4,19.72c.47,10.71-8,20.93-18.79,21.16-22.15.47-44.31.16-66.47.17H34v-8.89h6.8c21.07,0,42.15.06,63.22-.07,6.62,0,11.32-4.55,11.79-10.65a12.11,12.11,0,0,0-9.89-12.66C98.68,89.58,93.05,95.34,91.94,105.66Z" transform="translate(-33.99 -42.29)"/><path d="M63.45,147c4.2-1,7.65-1.11,10.22,3.73.85,1.59,5.26,2.64,7.28,1.88s4.4-4,4.44-6.23-2.32-4.83-4.33-6.33c-1.5-1.12-4.14-.94-6.27-1C61.35,139,47.92,139,34,139v-8.79c5.86,0,11.84-.06,17.82,0,9.76.12,19.57-.18,29.27.65,8.33.71,14.14,8.48,13.5,16.39a16.43,16.43,0,0,1-16.08,14.93C71.28,162.15,62.15,155.38,63.45,147Z" transform="translate(-33.99 -42.29)"/></svg>