<svg id="Layer_1" data-name="Layer 1" xmlns="http://www.w3.org/2000/svg" viewBox="0 0 156.09 153.63"><defs><style>.cls-1{fill:#f9dc48;}.cls-2{fill:#231f20;}</style></defs><title>partly-cloudy-day</title><path class="cls-1" d="M177.32,129.92l-9.65-31.46c-2.71-8.82-17.33-10.19-19.29,0l-.25,1.33-.56-37.15C147.41,51.79,130,48.5,127.93,60l-9.32,52.09a705.71,705.71,0,0,1-7.73-71.72c-.3-5.39-4.38-10-10-10-6,0-9.29,4.62-10,10L89.39,51.68c-4.18-1.39-9-.37-11.24,4.38L69.28,74.83A212.27,212.27,0,0,1,64.52,39.2C64,28.44,47.34,25,44.88,36.54L41.82,50.92q.21-6.83.92-13.68c.56-5.38-5-10-10-10-5.88,0-9.43,4.61-10,10a192.53,192.53,0,0,0,7.13,75.17c2.69,9,17.15,10,19.29,0l4.11-19.3q1.82,6.39,4,12.69c2.57,7.36,14.32,10.77,18.28,2.39l1.3-2.74q0,20.66.06,41.31a10.16,10.16,0,0,0,10,10c6,0,9.29-4.62,10-10l3.19-24.32q3.93,23.23,9.34,46.18c2.18,9.23,17.52,9.84,19.29,0l7.89-44.1a18.55,18.55,0,0,0,18.25.4L158,135.24C161.79,147.51,181.1,142.27,177.32,129.92Z" transform="translate(-21.72 -22.14)"/><path d="M114.2,35.22l4.67,5.18L107,49.63l-5.41-5.11Z" transform="translate(-21.72 -22.14)"/><path d="M45.44,113.72,39.7,107.3,51.11,96.75l5.26,5.54Z" transform="translate(-21.72 -22.14)"/><path d="M41.95,69.15v8.41H27.36V69.15Z" transform="translate(-21.72 -22.14)"/><path d="M83.49,22.14V36.06l-8.4.66V22.14Z" transform="translate(-21.72 -22.14)"/><path d="M45.47,33.62,55.6,44.42l-5.75,6.49L39.35,40Z" transform="translate(-21.72 -22.14)"/><path class="cls-2" d="M166.15,136.25c10.4-11.8,8.63-29.27-4.25-40a21.75,21.75,0,0,1-6-7c-8.75-18.81-24.16-26-44.68-20.63a11.37,11.37,0,0,1-2.91,0C101.16,51.19,92.42,44.32,78,44.6A29,29,0,0,0,51.6,63.36C46.66,76.25,50.49,87.43,64.08,99.8c-6,20.78,2.34,34.37,15.54,44,26,18.87,63.15,14.08,85.2-6.16l.12.12c.26-.25.42-.55.66-.81s.34-.28.5-.44S166.12,136.31,166.15,136.25ZM65.64,88.48C59.18,83.43,57.19,74.53,60,66.76a20.09,20.09,0,0,1,19.29-13c10.2.18,18.83,8,19.43,17.67.34,5.58-2.36,8.61-7.61,10.42-6.2,2.15-12,5.37-18.22,7.5C70.79,90.1,67.33,89.8,65.64,88.48Zm15.92,44.14a11.48,11.48,0,0,1-1.91-1.89c-7.8-9.14-9.2-17.17-4.85-25.63C79.47,96,87.62,92.36,100,93.91c5.57-10.77,13.94-17.57,26.81-15.53,11.41,1.81,17,9.8,19.94,20.42.48,1.75,2.72,3.34,4.51,4.34,8.21,4.59,13,12.89,9.32,20.63-.5,1.05-.59,2.07-1,2.87C147.65,149.72,104,148.63,81.57,132.62Z" transform="translate(-21.72 -22.14)"/></svg>