<svg id="Layer_1" data-name="Layer 1" xmlns="http://www.w3.org/2000/svg" viewBox="0 0 148.51 144.42"><defs><style>.cls-1{fill:#f9dc48;}</style></defs><title>partly-cloudy-night</title><path class="cls-1" d="M166.34,72.46c-4.92-3.22-13.77-.32-14.69,6l-3.77,25.84a356,356,0,0,1-6-41.06c-.43-4.95-3.47-9.2-8.67-9.82-4.43-.53-10.24,2.18-11,7.16l-5.58,37.81q-3.3-27.25-4.07-54.78a10,10,0,0,0-8.67-9.82c-4.5-.54-10.14,2.19-11,7.16Q90,58.8,87.69,76.77q-2.12-12.95-3.15-26.08c-.42-5.39-4.3-10-10-10-5.31,0-10.14,4.58-10,10q.72,27.17,0,54.33L54.41,75.36C50.9,65,34.61,66.26,34.77,78l.44,32.49c.1,7.78,7.47,10.86,13.23,9.23L62.12,159.9c3.7,10.87,18.75,8.64,19.64-2.66.49-6.25.91-12.51,1.28-18.77,4.12,9.23,17.55,7.7,19.14-2.36q2.5,13.85,5.62,27.57c2.08,9.13,17.82,9.94,19.29,0l5.46-37q3.72,14.62,8.61,28.94a10.31,10.31,0,0,0,9.64,7.34c4,0,9-3.07,9.64-7.34l8.78-60.12a8.25,8.25,0,0,0,4.34-5.79C174.69,82.43,172.6,76.56,166.34,72.46Z" transform="translate(-25.35 -26.41)"/><path d="M170.3,135.08c.35-.79.78-1.55,1-2.36a5.64,5.64,0,0,0,.27-1.16,27.45,27.45,0,0,0-9.43-29.28,24.23,24.23,0,0,1-6.54-8.12C149,80.3,137.23,72.91,122,73.61c-2.54.12-5.08.31-7.56.46-5.87-33.85-19.4-47.18-48-47.67,15,37.93.53,57.64-41.1,55.15,6,19.26,18.66,30.65,38.2,34,1.41,15.24,7,25.07,14.22,31.47,12.07,10.72,33.35,11.36,47.9,9.82,11.63-1.23,31.33-.76,42.17-17.31a28.41,28.41,0,0,0,1.8-3C169.87,136.05,170.08,135.55,170.3,135.08ZM69.18,103c-2.17,3.73-4.48,3.94-8.29,2.87-8.2-2.3-15.12-6.14-20.67-14.12C69.36,88.13,80.83,73,81.75,38.39c15.28,4.74,26.15,22.67,22.6,37.8-1.51,6.42-5.63,10.75-12.37,12.1C82.43,90.21,74.22,94.37,69.18,103Zm68.09,41.9c-14.42,1.73-40.45,6.68-50.87-3-2.35-2.17-3.83-5.07-5.52-7.72-2.44-3.81-5-8.18-5.46-12.51C74,107.91,85.58,97.28,102,99.68c6.88-11.55,14.42-16.26,25-14.87,11.59,1.51,17.35,9.25,20.33,19.89.48,1.72,2.52,3.36,4.24,4.31,8.21,4.51,12.92,12.4,9.33,20-.14.28-1.62,3.09-2.19,4.05C153.7,141.46,145.42,144,137.27,144.94Z" transform="translate(-25.35 -26.41)"/></svg>